<?xml version="1.0" encoding="UTF-8"?>
<svg version="1.1" xmlns="http://www.w3.org/2000/svg" width="962" height="658">
<path d="M0 0 C317.46 0 634.92 0 962 0 C962 217.14 962 434.28 962 658 C644.54 658 327.08 658 0 658 C0 440.86 0 223.72 0 0 Z " fill="#F8F8F8" transform="translate(0,0)"/>
<path d="M0 0 C27.39 0 54.78 0 83 0 C83.125 29.75 83.125 29.75 83.11767578 39.13183594 C83.1411963 41.58270606 83.16692399 44.03355643 83.1953125 46.484375 C83.1862085 47.75941895 83.17710449 49.03446289 83.16772461 50.34814453 C83.00697882 56.38484563 83.00697882 56.38484563 85.3054657 61.71522522 C88.31744792 63.82129487 90.97602644 64.39302705 94.5625 63.9375 C98.35956203 63.7454058 98.77011616 63.82279787 102 66.3125 C104 69 104 69 105 72 C105.82201904 71.99887207 106.64403809 71.99774414 107.4909668 71.99658203 C111.22397558 72.00870476 114.95494417 72.06636388 118.6875 72.125 C119.98107422 72.12242187 121.27464844 72.11984375 122.60742188 72.1171875 C132.0067988 72.31148987 132.0067988 72.31148987 135.01025391 74.39355469 C136.39453125 76.0546875 136.39453125 76.0546875 138 79 C138.99 78.67 139.98 78.34 141 78 C147.54098361 77.7704918 147.54098361 77.7704918 150 79 C152.55232307 78.85690637 155.08022872 78.66438391 157.625 78.4375 C163.59818022 77.9725813 168.27916457 78.26331782 174 80 C177.75425264 80.43834965 180.94481865 80.68309109 184.2265625 78.55859375 C187.78028213 76.56150342 191.20124176 76.1524122 195.1875 75.75 C195.94272949 75.66991699 196.69795898 75.58983398 197.47607422 75.50732422 C206.71011062 74.62251944 213.06546887 75.05963156 221 80 C226.56962196 82.00506391 232.25911984 82.63917366 238.109375 83.33984375 C241.25475629 84.05818083 242.0852033 84.49275593 244 87 C244.36076355 89.18302917 244.36076355 89.18302917 244.34057617 91.74682617 C244.34034958 92.70759567 244.34012299 93.66836517 244.33988953 94.6582489 C244.32440567 95.69270645 244.30892181 96.727164 244.29296875 97.79296875 C244.28872391 98.85413406 244.28447906 99.91529938 244.28010559 101.00862122 C244.26329706 104.40183765 244.22564019 107.79446272 244.1875 111.1875 C244.172456 113.48631956 244.15876711 115.78514841 244.14648438 118.08398438 C244.11338645 123.72285842 244.0631653 129.36138697 244 135 C244.66 135 245.32 135 246 135 C249.29687489 138.76932425 251.20930638 142.48558772 251.375 147.5 C251.63437274 152.48860239 253.99149009 154.90735163 257.40625 158.37109375 C260.52315357 161.55675254 260.13450013 164.23519287 260.125 168.5625 C260.12757813 169.73941406 260.13015625 170.91632813 260.1328125 172.12890625 C260 175 260 175 259 176 C258.7954524 179.70837225 258.65368044 183.41019616 258.5703125 187.12304688 C258.37280527 192.15536644 257.61816969 195.56873089 255 200 C254.13034494 202.12946603 254.13034494 202.12946603 254 204 C254.66 204.66 255.32 205.32 256 206 C256 206.99 256 207.98 256 209 C254.70954304 209.58600461 253.41753112 210.16858462 252.125 210.75 C251.30515625 211.11996094 250.4853125 211.48992187 249.640625 211.87109375 C247.92332532 212.60526477 246.18300384 213.2884244 244.421875 213.91015625 C238.10467903 216.1483039 234.33305692 218.92589771 230 224 C228.83395819 225.35470475 227.66728362 226.70886511 226.5 228.0625 C225.9946875 228.67222656 225.489375 229.28195312 224.96875 229.91015625 C219.69680654 235.50636608 213.61968278 239.72338033 207.1875 243.875 C200.49776935 248.26954045 194.07680455 252.77458663 188 258 C187.15050781 258.70511719 186.30101562 259.41023438 185.42578125 260.13671875 C176.34636862 267.91325603 168.25065032 277.91867895 166 290 C165.40430992 300.48185435 166.08835439 308.96103133 170.6875 318.5 C172.30665812 322.81775497 172.7579579 326.44343911 172 331 C170.5625 333.5 170.5625 333.5 168 335 C164.99143068 335.72770449 162.09632977 336.17106794 159 336 C158.01 335.34 157.02 334.68 156 334 C153.77433257 333.84989013 151.54304239 333.77844475 149.3125 333.75 C141.10489589 333.43296808 134.28740623 330.93119091 126.7890625 327.74902344 C124.28182363 326.69932245 121.7322912 325.7667967 119.1875 324.8125 C116.11444042 323.65415224 114.08033672 322.5803583 112 320 C111.296875 318.16015625 111.296875 318.16015625 110.75 316.0625 C109.51798373 312.01257418 107.74099775 308.77497959 105.5 305.1875 C102.96311245 301.04532054 101.51853657 297.64256842 100.625 292.875 C99.10169437 285.76624039 95.00925766 282.02471833 90 277 C82.40485644 268.81881141 77.57171068 260.7849048 72.84667969 250.78466797 C68.1332321 240.84945982 61.26740287 233.5711256 53.64404297 225.78588867 C52 224 52 224 50.20727539 221.33935547 C47.29047174 218.24801463 45.6355679 218.30092029 41.44140625 218.15234375 C40.16845703 218.10529297 38.89550781 218.05824219 37.58398438 218.00976562 C36.92358154 217.99856689 36.26317871 217.98736816 35.58276367 217.97583008 C33.57010918 217.93764437 31.56357784 217.85155912 29.55273438 217.75976562 C22.50272363 217.30052877 22.50272363 217.30052877 16.15600586 219.83276367 C13.45321576 222.54963239 12.89747937 224.67289759 12 228.375 C10.48670349 233.82776881 9.1589237 237.1609935 5 241 C-2.85953701 243.61984567 -9.25883733 241.63976574 -16.4375 238.0625 C-17.26644775 237.6593457 -18.09539551 237.25619141 -18.94946289 236.84082031 C-28.59631124 231.96012656 -38.08330263 224.83118316 -42 214.375 C-42.33128906 213.50875 -42.66257812 212.6425 -43.00390625 211.75 C-43.67345623 209.90151691 -44.32688943 208.04712394 -44.96484375 206.1875 C-48.98784155 194.55473528 -53.86642164 188.97928149 -63.56640625 181.671875 C-67.06975452 179.00716974 -70.05369637 176.01546893 -73.07421875 172.8203125 C-75.24940734 170.76425188 -77.54851171 169.24571209 -80.0625 167.625 C-84.74257551 164.49057155 -87.51525802 161.0062268 -90.52734375 156.28515625 C-92.02317296 153.82731914 -92.02317296 153.82731914 -94.4375 151.3125 C-96 149 -96 149 -96 142 C-64.32 142 -32.64 142 0 142 C0 95.14 0 48.28 0 0 Z " fill="#F8F7F8" transform="translate(434,177)"/>
<path d="M0 0 C27.39 0 54.78 0 83 0 C83.125 29.75 83.125 29.75 83.11767578 39.13183594 C83.1411963 41.58270606 83.16692399 44.03355643 83.1953125 46.484375 C83.1862085 47.75941895 83.17710449 49.03446289 83.16772461 50.34814453 C83.00697882 56.38484563 83.00697882 56.38484563 85.3054657 61.71522522 C88.31744792 63.82129487 90.97602644 64.39302705 94.5625 63.9375 C98.35956203 63.7454058 98.77011616 63.82279787 102 66.3125 C104 69 104 69 105 72 C105.82201904 71.99887207 106.64403809 71.99774414 107.4909668 71.99658203 C111.22397558 72.00870476 114.95494417 72.06636388 118.6875 72.125 C119.98107422 72.12242187 121.27464844 72.11984375 122.60742188 72.1171875 C132.0067988 72.31148987 132.0067988 72.31148987 135.01025391 74.39355469 C136.39453125 76.0546875 136.39453125 76.0546875 138 79 C138.99 78.67 139.98 78.34 141 78 C147.54098361 77.7704918 147.54098361 77.7704918 150 79 C152.55232307 78.85690637 155.08022872 78.66438391 157.625 78.4375 C163.59818022 77.9725813 168.27916457 78.26331782 174 80 C177.75425264 80.43834965 180.94481865 80.68309109 184.2265625 78.55859375 C187.78028213 76.56150342 191.20124176 76.1524122 195.1875 75.75 C195.94272949 75.66991699 196.69795898 75.58983398 197.47607422 75.50732422 C206.71011062 74.62251944 213.06546887 75.05963156 221 80 C226.56962196 82.00506391 232.25911984 82.63917366 238.109375 83.33984375 C241.25475629 84.05818083 242.0852033 84.49275593 244 87 C244.36076355 89.18302917 244.36076355 89.18302917 244.34057617 91.74682617 C244.34034958 92.70759567 244.34012299 93.66836517 244.33988953 94.6582489 C244.32440567 95.69270645 244.30892181 96.727164 244.29296875 97.79296875 C244.28872391 98.85413406 244.28447906 99.91529938 244.28010559 101.00862122 C244.26329706 104.40183765 244.22564019 107.79446272 244.1875 111.1875 C244.172456 113.48631956 244.15876711 115.78514841 244.14648438 118.08398438 C244.11338645 123.72285842 244.0631653 129.36138697 244 135 C244.66 135 245.32 135 246 135 C249.29687489 138.76932425 251.20930638 142.48558772 251.375 147.5 C251.63437274 152.48860239 253.99149009 154.90735163 257.40625 158.37109375 C260.52315357 161.55675254 260.13450013 164.23519287 260.125 168.5625 C260.12757813 169.73941406 260.13015625 170.91632813 260.1328125 172.12890625 C260 175 260 175 259 176 C258.7954524 179.70837225 258.65368044 183.41019616 258.5703125 187.12304688 C258.37280527 192.15536644 257.61816969 195.56873089 255 200 C254.13034494 202.12946603 254.13034494 202.12946603 254 204 C254.66 204.66 255.32 205.32 256 206 C256 206.99 256 207.98 256 209 C254.70954304 209.58600461 253.41753112 210.16858462 252.125 210.75 C251.30515625 211.11996094 250.4853125 211.48992187 249.640625 211.87109375 C247.92332532 212.60526477 246.18300384 213.2884244 244.421875 213.91015625 C238.10467903 216.1483039 234.33305692 218.92589771 230 224 C228.83395819 225.35470475 227.66728362 226.70886511 226.5 228.0625 C225.9946875 228.67222656 225.489375 229.28195312 224.96875 229.91015625 C219.69680654 235.50636608 213.61968278 239.72338033 207.1875 243.875 C200.49776935 248.26954045 194.07680455 252.77458663 188 258 C187.15050781 258.70511719 186.30101562 259.41023438 185.42578125 260.13671875 C176.34636862 267.91325603 168.25065032 277.91867895 166 290 C165.40430992 300.48185435 166.08835439 308.96103133 170.6875 318.5 C172.30665812 322.81775497 172.7579579 326.44343911 172 331 C170.5625 333.5 170.5625 333.5 168 335 C164.99143068 335.72770449 162.09632977 336.17106794 159 336 C158.01 335.34 157.02 334.68 156 334 C153.77433257 333.84989013 151.54304239 333.77844475 149.3125 333.75 C141.10489589 333.43296808 134.28740623 330.93119091 126.7890625 327.74902344 C124.28182363 326.69932245 121.7322912 325.7667967 119.1875 324.8125 C116.11444042 323.65415224 114.08033672 322.5803583 112 320 C111.296875 318.16015625 111.296875 318.16015625 110.75 316.0625 C109.51798373 312.01257418 107.74099775 308.77497959 105.5 305.1875 C102.96311245 301.04532054 101.51853657 297.64256842 100.625 292.875 C99.10169437 285.76624039 95.00925766 282.02471833 90 277 C82.40485644 268.81881141 77.57171068 260.7849048 72.84667969 250.78466797 C68.1332321 240.84945982 61.26740287 233.5711256 53.64404297 225.78588867 C52 224 52 224 50.20727539 221.33935547 C47.29047174 218.24801463 45.6355679 218.30092029 41.44140625 218.15234375 C40.16845703 218.10529297 38.89550781 218.05824219 37.58398438 218.00976562 C36.92358154 217.99856689 36.26317871 217.98736816 35.58276367 217.97583008 C33.57010918 217.93764437 31.56357784 217.85155912 29.55273438 217.75976562 C22.50272363 217.30052877 22.50272363 217.30052877 16.15600586 219.83276367 C13.45321576 222.54963239 12.89747937 224.67289759 12 228.375 C10.48670349 233.82776881 9.1589237 237.1609935 5 241 C-2.85953701 243.61984567 -9.25883733 241.63976574 -16.4375 238.0625 C-17.26644775 237.6593457 -18.09539551 237.25619141 -18.94946289 236.84082031 C-28.59631124 231.96012656 -38.08330263 224.83118316 -42 214.375 C-42.33128906 213.50875 -42.66257812 212.6425 -43.00390625 211.75 C-43.67345623 209.90151691 -44.32688943 208.04712394 -44.96484375 206.1875 C-48.98784155 194.55473528 -53.86642164 188.97928149 -63.56640625 181.671875 C-67.06975452 179.00716974 -70.05369637 176.01546893 -73.07421875 172.8203125 C-75.24940734 170.76425188 -77.54851171 169.24571209 -80.0625 167.625 C-84.74257551 164.49057155 -87.51525802 161.0062268 -90.52734375 156.28515625 C-92.02317296 153.82731914 -92.02317296 153.82731914 -94.4375 151.3125 C-96 149 -96 149 -96 142 C-64.32 142 -32.64 142 0 142 C0 95.14 0 48.28 0 0 Z M4 4 C4 50.86 4 97.72 4 146 C-27.68 146 -59.36 146 -92 146 C-86.54004398 155.0999267 -81.5939381 162.05979413 -72.72265625 168.0390625 C-70.00083768 169.99939667 -67.81185619 172.07647991 -65.5 174.5 C-61.52915369 178.64971326 -57.23312304 181.86854028 -52.48046875 185.078125 C-44.87489063 190.97095088 -41.53031841 200.0429321 -39.5625 209.1875 C-37.39593489 218.49169351 -31.90235885 223.98111805 -24 229 C-12.26120332 236.41072003 -12.26120332 236.41072003 1 238 C5.33247093 234.41519739 6.78300144 231.42403046 8.25 226.0625 C10.25815736 220.04434287 12.11894311 216.90251353 17.71484375 213.84765625 C20.95205902 212.64684306 23.59905803 212.51415115 27 213 C27.66 213.33 28.32 213.66 29 214 C30.46782747 214.01103902 31.93628376 213.96738354 33.40234375 213.89453125 C48.87823007 213.53544563 48.87823007 213.53544563 53.58984375 217.453125 C56.43211764 220.37131939 58.69736877 223.64843876 61 227 C62.25031072 228.41424579 63.51865812 229.8129669 64.8125 231.1875 C69.38228545 236.51173116 73.05672491 242.06747434 76.2109375 248.33984375 C82.06376448 259.97252862 88.51838322 268.98639123 97.33203125 278.5234375 C102.31659682 284.23857947 104.15445917 289.19993907 105.9375 296.5390625 C107.34646261 301.12855099 109.68535543 304.57428553 112.44140625 308.46484375 C114.03584299 311.05830101 114.48737824 312.91155801 115 315.875 C115.49912589 318.14010624 115.49912589 318.14010624 117 320 C120.70277046 321.7506448 124.35738038 322.87794303 128.30078125 323.94140625 C131.31912659 324.80515661 133.29432329 325.59057172 135.875 327.25 C138.72551502 328.62119854 141.07008389 329.25265853 144.22265625 329.43359375 C144.99432129 329.48161133 145.76598633 329.52962891 146.56103516 329.57910156 C148.86212284 329.6840618 151.16237338 329.75748048 153.46484375 329.82421875 C157 330 157 330 158 331 C159.49738124 331.0979057 160.99942892 331.12974864 162.5 331.125 C163.3146875 331.12757813 164.129375 331.13015625 164.96875 331.1328125 C166.99530377 331.2245178 166.99530377 331.2245178 168 330 C167.61596516 325.06704548 166.7146141 320.73804024 165.13232422 316.06542969 C160.93073395 303.57581139 159.79131159 291.64669818 165.26171875 279.2265625 C174.46658481 262.14067628 188.51620369 250.80142602 204.73828125 240.63671875 C215.1870562 234.04248928 224.61166863 226.21175909 232.0546875 216.25 C234.32338933 213.62595932 236.25282359 212.6420251 239.4375 211.3125 C240.36433594 210.91675781 241.29117187 210.52101563 242.24609375 210.11328125 C244.828337 209.06939568 247.41168738 208.02874857 250 207 C249.9071875 205.39125 249.9071875 205.39125 249.8125 203.75 C250 200 250 200 251.46826172 198.07275391 C253.29266539 195.60396412 253.47389995 194.12154407 253.6953125 191.0859375 C253.80939453 189.69761719 253.80939453 189.69761719 253.92578125 188.28125 C253.99152344 187.3221875 254.05726563 186.363125 254.125 185.375 C254.27009246 183.46588866 254.41837259 181.55701608 254.5703125 179.6484375 C254.65949951 178.38265869 254.65949951 178.38265869 254.75048828 177.09130859 C255 175 255 175 256 173 C256.91506158 168.17941787 256.87701203 164.41535647 254.25 160.17578125 C252.78900043 158.30518002 251.31360146 156.44573846 249.82421875 154.59765625 C248.02051538 152.02921355 247.50059452 150.86863325 247.375 147.8125 C246.9702218 143.69725501 246.63504095 143.31993781 244.02685547 140.46679688 C240.10381158 135.42423006 240.13929367 130.932063 240.1953125 124.71875 C240.18160614 123.66465942 240.16789978 122.61056885 240.15377808 121.52453613 C240.11661153 118.18258463 240.12018425 114.84212811 240.125 111.5 C240.10686403 109.22393524 240.08605852 106.94789009 240.0625 104.671875 C240.01077431 99.11443747 239.9924233 93.5576563 240 88 C239.00129883 87.89840576 238.00259766 87.79681152 236.97363281 87.69213867 C229.88528535 86.90445155 223.9365731 86.06863367 217.75 82.3125 C211.80002258 79.1110262 206.78481715 78.44317783 200.0625 78.8125 C199.28165039 78.8535083 198.50080078 78.8945166 197.69628906 78.93676758 C192.74403517 79.38682824 189.2016821 80.76019141 184.86010742 83.12475586 C178.14827495 86.28290252 168.74201754 84.046014 161.828125 82.33984375 C161.22484375 82.22769531 160.6215625 82.11554688 160 82 C159.67 82.33 159.34 82.66 159 83 C154.29615691 83.30638058 149.59272087 83.18272247 144.9375 82.4375 C143.968125 82.293125 142.99875 82.14875 142 82 C141.67 82.33 141.34 82.66 141 83 C138.75 83.4375 138.75 83.4375 136 83 C135.39671875 82.02160156 134.7934375 81.04320312 134.171875 80.03515625 C132.24080285 77.60262362 131.24053757 77.0492645 128.14746094 76.41577148 C124.59357832 76.1747735 121.06170674 76.05254362 117.5 76 C105.04684729 75.81628647 105.04684729 75.81628647 102.23193359 73.62133789 C101.1021798 72.11892998 100.04649956 70.5615415 99 69 C96.36284526 68.25502622 96.36284526 68.25502622 93.625 68.4375 C87.82919496 68.24978162 85.40601392 66.6560541 81 63 C80.34 63 79.68 63 79 63 C79 43.53 79 24.06 79 4 C54.25 4 29.5 4 4 4 Z " fill="#1A191D" transform="translate(434,177)"/>
<path d="M0 0 C26.73 0 53.46 0 81 0 C81 4.62 81 9.24 81 14 C80.01 14.66 79.02 15.32 78 16 C78 11.71 78 7.42 78 3 C53.25 3 28.5 3 3 3 C3 49.86 3 96.72 3 145 C-45.375 144.875 -45.375 144.875 -60.66552734 144.81982422 C-65.17744309 144.81313653 -65.17744309 144.81313653 -69.68936157 144.80911255 C-71.70344932 144.80603566 -73.71753333 144.79898983 -75.7315979 144.78884888 C-78.77734812 144.77427619 -81.82287265 144.77218575 -84.86865234 144.77294922 C-85.77018728 144.765753 -86.67172222 144.75855679 -87.6005764 144.7511425 C-92.28257352 144.53713469 -92.28257352 144.53713469 -96 147 C-96.33 145.02 -96.66 143.04 -97 141 C-64.65484243 140.75803484 -32.34972283 141.48651234 0 142 C0 95.14 0 48.28 0 0 Z " fill="#020005" transform="translate(435,178)"/>
<path d="M0 0 C8.66666667 0 17.33333333 0 26 0 C26 0.33 26 0.66 26 1 C15.605 1.495 15.605 1.495 5 2 C10.5635297 10.38560999 14.88089314 16.57522985 23.34765625 22.14453125 C26.07237298 24.05062911 28.20986538 26.09556276 30.5 28.5 C33.69308244 31.83665629 36.96912454 34.53381067 40.75 37.1875 C50.41703189 44.05405468 54.93457901 52.60966079 57.4375 64.1875 C59.6243988 73.48782785 64.6468519 78.30630963 72.484375 83.46875 C75.90418538 85.55037371 79.32965051 87.401622 83 89 C83.680625 89.2990625 84.36125 89.598125 85.0625 89.90625 C89.11417686 91.56375417 92.56804431 92.70508386 97 92 C100.92025183 88.91657116 101.89305614 85.83379772 103.25 81.125 C105.78456991 73.53708197 109.03826343 70.48086828 116 67 C122.53333333 66.76666667 122.53333333 66.76666667 125 68 C126.4791767 68.02279553 127.95941381 67.99088027 129.4375 67.9296875 C145.06267559 67.67117497 145.06267559 67.67117497 149.61328125 71.51171875 C152.10207005 74.09616508 154.12837852 76.93780529 156 80 C154.02 80.99 154.02 80.99 152 82 C147 77 147 77 145.73583984 75.37280273 C141.9943003 72.41377646 136.24760894 73.26080777 131.65820312 73.12670898 C129.6373404 73.06288971 127.6206959 72.96163044 125.6015625 72.85742188 C124.3228125 72.81294922 123.0440625 72.76847656 121.7265625 72.72265625 C120.55689941 72.67890869 119.38723633 72.63516113 118.18212891 72.59008789 C114.30424382 73.08962518 112.7276306 74.24979889 110 77 C108.72992464 80.03228526 108.72992464 80.03228526 108 83.375 C106.48670349 88.82776881 105.1589237 92.1609935 101 96 C93.14046299 98.61984567 86.74116267 96.63976574 79.5625 93.0625 C78.31907837 92.45776855 78.31907837 92.45776855 77.05053711 91.84082031 C67.40368876 86.96012656 57.91669737 79.83118316 54 69.375 C53.50306641 68.075625 53.50306641 68.075625 52.99609375 66.75 C52.32654377 64.90151691 51.67311057 63.04712394 51.03515625 61.1875 C47.01215845 49.55473528 42.13357836 43.97928149 32.43359375 36.671875 C28.93024548 34.00716974 25.94630363 31.01546893 22.92578125 27.8203125 C20.75059266 25.76425188 18.45148829 24.24571209 15.9375 22.625 C11.2604616 19.49260562 8.49199236 16.00789588 5.47265625 11.296875 C3.95500376 8.81801525 3.95500376 8.81801525 1.5625 6.125 C0 4 0 4 0 0 Z " fill="#1A191D" transform="translate(338,322)"/>
<path d="M0 0 C27.39 0 54.78 0 83 0 C83.125 29.75 83.125 29.75 83.11767578 39.13183594 C83.1411963 41.58270606 83.16692399 44.03355643 83.1953125 46.484375 C83.1862085 47.75941895 83.17710449 49.03446289 83.16772461 50.34814453 C83.00697882 56.38484563 83.00697882 56.38484563 85.3054657 61.71522522 C88.31744792 63.82129487 90.97602644 64.39302705 94.5625 63.9375 C98.35956203 63.7454058 98.77011616 63.82279787 102 66.3125 C104 69 104 69 105 72 C105.82201904 71.99887207 106.64403809 71.99774414 107.4909668 71.99658203 C111.22397558 72.00870476 114.95494417 72.06636388 118.6875 72.125 C119.98107422 72.12242187 121.27464844 72.11984375 122.60742188 72.1171875 C132.0067988 72.31148987 132.0067988 72.31148987 135.01025391 74.39355469 C136.39453125 76.0546875 136.39453125 76.0546875 138 79 C138.99 78.67 139.98 78.34 141 78 C147.54098361 77.7704918 147.54098361 77.7704918 150 79 C153.39381976 78.81904552 156.76365056 78.54855384 160.14648438 78.22851562 C165.68078758 77.78719172 165.68078758 77.78719172 169 80 C167.68 80.33 166.36 80.66 165 81 C165 80.34 165 79.68 165 79 C162.03 79.99 162.03 79.99 159 81 C159 81.99 159 82.98 159 84 C149.46193949 84.17272142 149.46193949 84.17272142 144.9375 83.4375 C143.968125 83.293125 142.99875 83.14875 142 83 C141.67 83.33 141.34 83.66 141 84 C138.75 84.4375 138.75 84.4375 136 84 C135.39671875 83.02160156 134.7934375 82.04320312 134.171875 81.03515625 C132.24080285 78.60262362 131.24053757 78.0492645 128.14746094 77.41577148 C124.59357832 77.1747735 121.06170674 77.05254362 117.5 77 C105.0477973 76.81630049 105.0477973 76.81630049 102.22753906 74.61914062 C101.09741224 73.11881515 100.04381179 71.56160818 99 70 C96.23660373 69.36358146 93.93127674 69.49356414 91.109375 69.59375 C86.24021454 68.66396056 82.50177307 66.51852326 79 63 C77.76093717 59.45539744 77.89644259 56.14403066 78.05078125 52.421875 C78.05877243 51.41408997 78.06676361 50.40630493 78.07499695 49.36798096 C78.11200905 46.15972624 78.21264694 42.95684729 78.3125 39.75 C78.34050583 37.57817198 78.36463712 35.40629031 78.38476562 33.234375 C78.41585544 31.17182069 78.45024542 29.10931291 78.48828125 27.046875 C78.50619217 26.06982605 78.52410309 25.0927771 78.54255676 24.08612061 C78.57145493 23.18468323 78.60035309 22.28324585 78.63012695 21.35449219 C78.65283157 20.55984558 78.67553619 19.76519897 78.69892883 18.94647217 C79 17 79 17 81 15 C81.33 10.38 81.66 5.76 82 1 C55.27 1 28.54 1 1 1 C1 47.86 1 94.72 1 143 C-19.79 143 -40.58 143 -62 143 C-62 142.67 -62 142.34 -62 142 C-41.54 142 -21.08 142 0 142 C0 95.14 0 48.28 0 0 Z " fill="#59575F" transform="translate(434,177)"/>
<path d="M0 0 C0.99 0.495 0.99 0.495 2 1 C3.1687481 4.5062443 3.12514267 7.6477866 3.09765625 11.29296875 C3.0962413 11.99899734 3.09482635 12.70502594 3.09336853 13.43244934 C3.08777764 15.68417626 3.07522688 17.93580321 3.0625 20.1875 C3.05748382 21.71549335 3.05292112 23.24348827 3.04882812 24.77148438 C3.0378112 28.51436135 3.02055287 32.25716373 3 36 C3.66 36 4.32 36 5 36 C8.29687489 39.76932425 10.20930638 43.48558772 10.375 48.5 C10.63437274 53.48860239 12.99149009 55.90735163 16.40625 59.37109375 C19.54840867 62.58256474 19.10522165 65.26739184 19.0625 69.625 C19.05347656 70.81351562 19.04445313 72.00203125 19.03515625 73.2265625 C19.02355469 74.14179688 19.01195312 75.05703125 19 76 C17.33333333 76 15.66666667 76 14 76 C14.0928125 75.26136719 14.185625 74.52273438 14.28125 73.76171875 C14.86677313 65.53302757 12.9972925 61.82100626 7.828125 55.53125 C5.996409 52.99502784 5.47690516 51.80323874 5.3125 48.75 C4.98952515 44.87430178 4.84931413 44.51988187 2.51098633 41.82788086 C-0.63029168 37.61574588 -0.65449616 34.12484968 -0.48828125 29.00390625 C-0.47766914 27.75358864 -0.47766914 27.75358864 -0.46684265 26.47801208 C-0.43904885 23.83856087 -0.37634389 21.20130031 -0.3125 18.5625 C-0.28739749 16.7637027 -0.26458775 14.96487186 -0.24414062 13.16601562 C-0.18927214 8.77651097 -0.10310875 4.38862573 0 0 Z " fill="#16151A" transform="translate(675,276)"/>
<path d="M0 0 C0.33 0 0.66 0 1 0 C0.99880661 0.98265839 0.99880661 0.98265839 0.99758911 1.98516846 C0.99515291 8.7986985 1.03428556 15.61108713 1.09765625 22.42431641 C1.11583385 24.96755674 1.1233816 27.51089602 1.12011719 30.05419922 C1.11726538 33.70878934 1.15252962 37.36131966 1.1953125 41.015625 C1.18621857 42.15429016 1.17712463 43.29295532 1.16775513 44.46612549 C1.22244396 47.43091888 1.32939314 50.11160308 2 53 C5.99023907 56.8396771 9.55073639 57.56405891 15 58 C15.33 58.99 15.66 59.98 16 61 C14.53059967 61.33744058 13.04795231 61.61725028 11.5625 61.875 C10.32693359 62.11863281 10.32693359 62.11863281 9.06640625 62.3671875 C4.14127844 61.77742697 0.47994031 59.50803209 -3 56 C-4.23890241 52.45523422 -4.10356338 49.14417459 -3.94921875 45.421875 C-3.94122757 44.41408997 -3.93323639 43.40630493 -3.92500305 42.36798096 C-3.88799095 39.15972624 -3.78735306 35.95684729 -3.6875 32.75 C-3.65949417 30.57817198 -3.63536288 28.40629031 -3.61523438 26.234375 C-3.58414456 24.17182069 -3.54975458 22.10931291 -3.51171875 20.046875 C-3.49380783 19.06982605 -3.47589691 18.0927771 -3.45744324 17.08612061 C-3.42854507 16.18468323 -3.39964691 15.28324585 -3.36987305 14.35449219 C-3.34716843 13.55984558 -3.32446381 12.76519897 -3.30107117 11.94647217 C-3 10 -3 10 -1 8 C-0.54188325 6.02764667 -0.54188325 6.02764667 -0.375 3.875 C-0.25125 2.59625 -0.1275 1.3175 0 0 Z " fill="#1C1A21" transform="translate(516,184)"/>
<path d="M0 0 C0.66 0.33 1.32 0.66 2 1 C2.08132642 4.04221065 2.14065374 7.0822238 2.1875 10.125 C2.21263672 10.9809375 2.23777344 11.836875 2.26367188 12.71875 C2.32431257 17.97427709 1.80927929 21.39392278 -1 26 C-1.86965506 28.12946603 -1.86965506 28.12946603 -2 30 C-1.34 30.66 -0.68 31.32 0 32 C0 32.99 0 33.98 0 35 C-4.71706751 37.14204998 -9.45620688 39.22247669 -14.25 41.1875 C-15.43335938 41.67283203 -15.43335938 41.67283203 -16.640625 42.16796875 C-19.09968048 43.03515222 -21.41699478 43.64028619 -24 44 C-24.66 43.67 -25.32 43.34 -26 43 C-20.99393114 38.13298861 -13.20377929 33 -6 33 C-6.226875 31.9275 -6.45375 30.855 -6.6875 29.75 C-7.05432656 25.34808132 -6.4761004 25.29178434 -4 22 C-3.44575091 19.61356832 -3.44575091 19.61356832 -3.33984375 17.05078125 C-3.26830078 16.12072266 -3.19675781 15.19066406 -3.12304688 14.23242188 C-3.03120117 12.78706055 -3.03120117 12.78706055 -2.9375 11.3125 C-2.80925355 9.39134275 -2.67297425 7.47069898 -2.52734375 5.55078125 C-2.47312256 4.70169189 -2.41890137 3.85260254 -2.36303711 2.9777832 C-2.24323486 2.32511475 -2.12343262 1.67244629 -2 1 C-1.34 0.67 -0.68 0.34 0 0 Z " fill="#100F13" transform="translate(690,351)"/>
<path d="M0 0 C2.39817079 0.2564082 4.79243728 0.5295484 7.1875 0.8125 C7.86103516 0.88275391 8.53457031 0.95300781 9.22851562 1.02539062 C13.87188447 1.59165512 17.62267244 2.62267244 21 6 C21.07319621 8.69654854 21.09242537 11.36691458 21.0625 14.0625 C21.05798828 14.82111328 21.05347656 15.57972656 21.04882812 16.36132812 C21.0370068 18.24091871 21.01907078 20.12046899 21 22 C20.34 21.01 19.68 20.02 19 19 C18.67 30.88 18.34 42.76 18 55 C17.67 55 17.34 55 17 55 C17 39.16 17 23.32 17 7 C13.7 7 10.4 7 7 7 C3.8359375 6.34375 3.8359375 6.34375 1.375 5.5 C0.53710938 5.2215625 -0.30078125 4.943125 -1.1640625 4.65625 C-1.76992188 4.4396875 -2.37578125 4.223125 -3 4 C-2.01 3.67 -1.02 3.34 0 3 C0 2.01 0 1.02 0 0 Z " fill="#2A282D" transform="translate(657,258)"/>
<path d="M0 0 C3.28471185 1.8012936 6.11433626 3.88513745 9 6.25 C14.56895962 10.66936051 20.68160142 13.78708944 27 17 C27 17.99 27 18.98 27 20 C16.58122619 19.53694339 8.7120371 13.26595648 1.58203125 6.1484375 C0 4 0 4 0 0 Z " fill="#1D1D23" transform="translate(396,395)"/>
<path d="M0 0 C0.33 0.66 0.66 1.32 1 2 C1.66 2 2.32 2 3 2 C5.26913262 5.1638192 7.10012984 8.60459102 9 12 C9.39960937 12.70253906 9.79921875 13.40507812 10.2109375 14.12890625 C12.78742016 18.92348864 14.05917139 23.65213208 15 29 C12.13275314 28.42655063 11.1385485 28.1385485 9 26 C8.53448266 24.68292654 8.12486879 23.34568283 7.75 22 C6.57226289 18.20439127 4.97617563 15.20451497 2.8125 11.875 C0.09283207 7.57725316 -0.65511407 5.02254123 0 0 Z " fill="#202022" transform="translate(537,471)"/>
<path d="M0 0 C0.33 0 0.66 0 1 0 C0.98428955 0.589021 0.9685791 1.17804199 0.95239258 1.78491211 C0.889308 4.50234027 0.85078009 7.21961361 0.8125 9.9375 C0.78736328 10.86369141 0.76222656 11.78988281 0.73632812 12.74414062 C0.67706679 18.37396762 1.28129137 22.87941362 3.38085938 28.12109375 C4.21609597 30.6557865 3.88190418 32.51463366 3 35 C0 34 0 34 -0.94921875 32.3828125 C-2.93096249 26.3222417 -3.31526839 20.51422434 -3.375 14.1875 C-3.38877686 13.36330566 -3.40255371 12.53911133 -3.41674805 11.68994141 C-3.38083662 6.98889601 -3.05257212 3.81958897 0 0 Z " fill="#1A1920" transform="translate(599,462)"/>
<path d="M0 0 C0.99 0.495 0.99 0.495 2 1 C3.22318866 4.66956597 3.23116124 8.12321003 3.31640625 11.94921875 C3.33718735 12.72183548 3.35796844 13.49445221 3.37937927 14.29048157 C3.44471038 16.7560648 3.50368315 19.22175361 3.5625 21.6875 C3.60570087 23.36003691 3.64931566 25.03256319 3.69335938 26.70507812 C3.8003749 30.8032775 3.90168857 34.90158296 4 39 C2.68 38.67 1.36 38.34 0 38 C0 25.46 0 12.92 0 0 Z " fill="#040307" transform="translate(675,276)"/>
<path d="M0 0 C1.67542976 0.28604898 3.34385343 0.61781233 5 1 C5 1.99 5 2.98 5 4 C0.28293249 6.14204998 -4.45620688 8.22247669 -9.25 10.1875 C-10.43335938 10.67283203 -10.43335938 10.67283203 -11.640625 11.16796875 C-14.09968048 12.03515222 -16.41699478 12.64028619 -19 13 C-19.66 12.67 -20.32 12.34 -21 12 C-16.0831691 7.0831691 -10.28923728 4.79939461 -3.94921875 2.234375 C-1.15935795 1.28578192 -1.15935795 1.28578192 0 0 Z " fill="#222125" transform="translate(685,382)"/>
<path d="M0 0 C7.26236302 1.30960645 13.3830748 3.75956186 20 7 C20 8.32 20 9.64 20 11 C20.99 11.33 21.98 11.66 23 12 C19.5847973 11.38074535 16.40646528 10.53132639 13.13671875 9.37109375 C11.80737305 8.90219727 11.80737305 8.90219727 10.45117188 8.42382812 C9.53916016 8.09833984 8.62714844 7.77285156 7.6875 7.4375 C6.75615234 7.10814453 5.82480469 6.77878906 4.86523438 6.43945312 C2.57573277 5.62932179 0.28738542 4.81608317 -2 4 C-1.34 3.67 -0.68 3.34 0 3 C0 2.01 0 1.02 0 0 Z " fill="#1E1D21" transform="translate(552,497)"/>
<path d="M0 0 C4.43643516 -0.43494462 6.32863378 -0.54001196 9.875 2.3125 C12 5 12 5 13 8 C16.3 8 19.6 8 23 8 C22.67 9.32 22.34 10.64 22 12 C18.59844145 12.35666828 15.38881911 12.52738171 12 12 C10.43359375 10.69921875 10.43359375 10.69921875 9.25 9.0625 C7.2742732 5.70158129 7.2742732 5.70158129 3.6875 5.125 C2.800625 5.08375 1.91375 5.0425 1 5 C1 4.67 1 4.34 1 4 C2.65 4 4.3 4 6 4 C5.67 3.34 5.34 2.68 5 2 C2.47266765 1.34444881 2.47266765 1.34444881 0 1 C0 0.67 0 0.34 0 0 Z " fill="#05050A" transform="translate(526,241)"/>
<path d="M0 0 C0 0.99 0 1.98 0 3 C-5.03407528 2.49659247 -8.52772647 1.28371414 -13 -1 C-16.2366963 -1.70758326 -16.2366963 -1.70758326 -19 -2 C-19 -2.66 -19 -3.32 -19 -4 C-22.96 -4 -26.92 -4 -31 -4 C-31 -4.33 -31 -4.66 -31 -5 C-19.09160943 -6.32997489 -10.26495134 -6.71932805 0 0 Z " fill="#242329" transform="translate(657,258)"/>
<path d="M0 0 C3.55382139 -0.74857089 6.4616108 -0.89416052 10 0 C13.87411196 3.28252459 16.92759685 6.97319077 20 11 C18.02 11.99 18.02 11.99 16 13 C11 8 11 8 9.61010742 6.36401367 C7.52359274 4.59640829 6.26063139 4.57921582 3.55078125 4.48828125 C2.70322266 4.45283203 1.85566406 4.41738281 0.98242188 4.38085938 C-0.33918945 4.34702148 -0.33918945 4.34702148 -1.6875 4.3125 C-2.58017578 4.27833984 -3.47285156 4.24417969 -4.39257812 4.20898438 C-6.59492671 4.12654352 -8.79687938 4.05738449 -11 4 C-11 3.67 -11 3.34 -11 3 C-5.39 3 0.22 3 6 3 C6 2.34 6 1.68 6 1 C4.02 1 2.04 1 0 1 C0 0.67 0 0.34 0 0 Z " fill="#26242A" transform="translate(474,391)"/>
<path d="M0 0 C-0.53820735 5.274432 -1.57335085 9.33336702 -4 14 C-4.99 14.33 -5.98 14.66 -7 15 C-8.18695553 18.56086658 -8.35095418 21.97331024 -8.5625 25.6875 C-8.60568359 26.38939453 -8.64886719 27.09128906 -8.69335938 27.81445312 C-8.7991736 29.54275206 -8.90006581 31.2713511 -9 33 C-9.33 33 -9.66 33 -10 33 C-10.60848372 22.46647065 -10.28796372 13.5183347 -5 4 C-1.42384106 0 -1.42384106 0 0 0 Z " fill="#2E2C31" transform="translate(605,449)"/>
<path d="M0 0 C4.21814817 3.9700218 7.61227103 8.30840284 11 13 C10.01 13.99 9.02 14.98 8 16 C6.45823181 14.47926959 4.94214019 12.93247489 3.4375 11.375 C2.59058594 10.51648438 1.74367188 9.65796875 0.87109375 8.7734375 C-1 6 -1 6 -0.77734375 2.6640625 C-0.52082031 1.78492188 -0.26429688 0.90578125 0 0 Z " fill="#202024" transform="translate(518,440)"/>
<path d="M0 0 C0.99 0.495 0.99 0.495 2 1 C2 1.99 2 2.98 2 4 C2.66 4 3.32 4 4 4 C4.33 2.68 4.66 1.36 5 0 C5.19335938 0.81984375 5.38671875 1.6396875 5.5859375 2.484375 C5.84632813 3.56203125 6.10671875 4.6396875 6.375 5.75 C6.63023437 6.81734375 6.88546875 7.8846875 7.1484375 8.984375 C7.87533541 11.55852722 8.7026224 13.67600186 10 16 C9.34 16 8.68 16 8 16 C7.34 16.66 6.68 17.32 6 18 C2.69800644 12.0564116 1.04481337 6.70880162 0 0 Z " fill="#212125" transform="translate(389,380)"/>
<path d="M0 0 C1.010625 0.639375 2.02125 1.27875 3.0625 1.9375 C6.75219924 4.06848956 9.77860255 4.65539613 14 5 C14.33 5.99 14.66 6.98 15 8 C6.5309417 9.72107623 6.5309417 9.72107623 2.77734375 7.953125 C0.875 6.5625 0.875 6.5625 -2 4 C-1.34 3.67 -0.68 3.34 0 3 C0 2.01 0 1.02 0 0 Z " fill="#1B1A1E" transform="translate(517,237)"/>
<path d="M0 0 C2.25056722 0.11433363 4.50046674 0.24186436 6.75 0.375 C8.62945313 0.47941406 8.62945313 0.47941406 10.546875 0.5859375 C13.60998121 0.95323304 15.41974266 1.39711286 18 3 C16 5 16 5 12.9609375 5.1953125 C11.77757812 5.17210937 10.59421875 5.14890625 9.375 5.125 C8.18648437 5.10695313 6.99796875 5.08890625 5.7734375 5.0703125 C4.85820313 5.04710937 3.94296875 5.02390625 3 5 C3 4.34 3 3.68 3 3 C2.01 3 1.02 3 0 3 C0 2.01 0 1.02 0 0 Z " fill="#1B1A1E" transform="translate(572,505)"/>
<path d="M0 0 C-1.32 0.33 -2.64 0.66 -4 1 C-4 0.34 -4 -0.32 -4 -1 C-5.98 -0.34 -7.96 0.32 -10 1 C-10 1.99 -10 2.98 -10 4 C-15.73842251 4.20413361 -20.60539047 4.27141454 -26 2 C-22.25 0.875 -22.25 0.875 -20 2 C-19.67 1.01 -19.34 0.02 -19 -1 C-4.3 -2.86666667 -4.3 -2.86666667 0 0 Z " fill="#2D2A31" transform="translate(603,257)"/>
<path d="M0 0 C1.2375 0.495 1.2375 0.495 2.5 1 C6.5873983 2.16782809 9.76923344 2.1458885 14 2 C13.67 2.66 13.34 3.32 13 4 C12.34 4 11.68 4 11 4 C11 4.66 11 5.32 11 6 C11.66 6.33 12.32 6.66 13 7 C6.80112515 7.37952295 2.5522888 6.8352113 -3 4 C-2.505 3.525625 -2.01 3.05125 -1.5 2.5625 C0.11542197 1.24076302 0.11542197 1.24076302 0 0 Z " fill="#1E1D27" transform="translate(423,412)"/>
<path d="M0 0 C1.66611905 -0.042721 3.33382885 -0.04063832 5 0 C5.33 0.33 5.66 0.66 6 1 C7.34747084 1.23075082 8.70377565 1.41153063 10.0625 1.5625 C11.361875 1.706875 12.66125 1.85125 14 2 C14 2.66 14 3.32 14 4 C14.66 4.66 15.32 5.32 16 6 C7.96498906 7.61050328 7.96498906 7.61050328 3.9375 5.0625 C3.298125 4.381875 2.65875 3.70125 2 3 C2.33 2.67 2.66 2.34 3 2 C2.01 1.34 1.02 0.68 0 0 Z " fill="#2A2A2E" transform="translate(586,506)"/>
<path d="M0 0 C0.33 0 0.66 0 1 0 C0.67 6.27 0.34 12.54 0 19 C-0.99 19.33 -1.98 19.66 -3 20 C-3.08139142 17.60347472 -3.14067009 15.20974564 -3.1875 12.8125 C-3.22520508 11.80219727 -3.22520508 11.80219727 -3.26367188 10.77148438 C-3.3289449 6.31116118 -2.73686642 3.55034309 0 0 Z " fill="#040207" transform="translate(599,462)"/>
<path d="M0 0 C0.99 0.99 1.98 1.98 3 3 C-0.11016455 6.28788824 -3.01618925 8.83735988 -7 11 C-7 10.34 -7 9.68 -7 9 C-8.32 9.33 -9.64 9.66 -11 10 C-7.50640535 6.40365256 -3.88901869 3.16548033 0 0 Z " fill="#1C1B20" transform="translate(629,423)"/>
<path d="M0 0 C6 7.4 6 7.4 6 12 C5.01 12 4.02 12 3 12 C3 13.65 3 15.3 3 17 C2.67 17 2.34 17 2 17 C1.896875 15.7625 1.79375 14.525 1.6875 13.25 C1.2576881 9.672448 0.42223091 7.73817407 -2 5 C-2 4.34 -2 3.68 -2 3 C-1.34 3 -0.68 3 0 3 C0 2.01 0 1.02 0 0 Z " fill="#212028" transform="translate(679,312)"/>
<path d="M0 0 C11.22 0 22.44 0 34 0 C34 0.33 34 0.66 34 1 C32.71367676 1.01401855 32.71367676 1.01401855 31.40136719 1.02832031 C28.21027321 1.07241291 25.02013244 1.13406056 21.82958984 1.20751953 C20.45048349 1.23569099 19.07121682 1.25692472 17.69189453 1.27099609 C15.70577051 1.29247545 13.72000091 1.34123132 11.734375 1.390625 C10.54038086 1.41157227 9.34638672 1.43251953 8.11621094 1.45410156 C4.47238505 2.09242769 3.28321298 3.16328085 1 6 C0.67 4.02 0.34 2.04 0 0 Z " fill="#0B0611" transform="translate(338,319)"/>
<path d="M0 0 C6.93 0.495 6.93 0.495 14 1 C11 4 11 4 8.08203125 4.29296875 C7.00308594 4.25816406 5.92414062 4.22335938 4.8125 4.1875 C3.72582031 4.16042969 2.63914062 4.13335937 1.51953125 4.10546875 C0.68808594 4.07066406 -0.14335938 4.03585938 -1 4 C-0.67 2.68 -0.34 1.36 0 0 Z " fill="#0E0D12" transform="translate(549,250)"/>
<path d="M0 0 C1.18851563 0.00902344 2.37703125 0.01804688 3.6015625 0.02734375 C4.51679687 0.03894531 5.43203125 0.05054688 6.375 0.0625 C6.375 1.0525 6.375 2.0425 6.375 3.0625 C-1.545 3.5575 -1.545 3.5575 -9.625 4.0625 C-9.295 3.0725 -8.965 2.0825 -8.625 1.0625 C-5.74084117 -0.37957941 -3.20778472 -0.03144887 0 0 Z " fill="#030207" transform="translate(631.625,253.9375)"/>
<path d="M0 0 C0.66 0.33 1.32 0.66 2 1 C2 7.27 2 13.54 2 20 C1.67 20 1.34 20 1 20 C0.92652344 18.93458984 0.92652344 18.93458984 0.8515625 17.84765625 C0.73941406 16.46900391 0.73941406 16.46900391 0.625 15.0625 C0.55539062 14.14597656 0.48578125 13.22945313 0.4140625 12.28515625 C0.20910156 11.15400391 0.20910156 11.15400391 0 10 C-0.66 9.67 -1.32 9.34 -2 9 C-2 6.36 -2 3.72 -2 1 C-1.34 0.67 -0.68 0.34 0 0 Z " fill="#302F36" transform="translate(690,351)"/>
<path d="M0 0 C5.44693314 -0.09688221 10.63904667 -0.12862175 16 1 C16 1.66 16 2.32 16 3 C10.06 3 4.12 3 -2 3 C-1.34 2.67 -0.68 2.34 0 2 C0 1.34 0 0.68 0 0 Z " fill="#040207" transform="translate(464,391)"/>
<path d="M0 0 C8.66666667 0 17.33333333 0 26 0 C26 0.33 26 0.66 26 1 C15.605 1.495 15.605 1.495 5 2 C4.67 3.98 4.34 5.96 4 8 C2 6.25 2 6.25 0 4 C0 2.68 0 1.36 0 0 Z " fill="#27222B" transform="translate(338,322)"/>
<path d="M0 0 C-0.66 0 -1.32 0 -2 0 C-2.061875 0.598125 -2.12375 1.19625 -2.1875 1.8125 C-3.34270543 4.92266847 -5.06877187 5.60417708 -8 7 C-8.99 7 -9.98 7 -11 7 C-11 6.01 -11 5.02 -11 4 C-11.99 3.67 -12.98 3.34 -14 3 C-13.0925 2.71125 -12.185 2.4225 -11.25 2.125 C-8.11697634 1.14690572 -8.11697634 1.14690572 -5.875 -0.1875 C-3.52437854 -1.20610263 -2.36651218 -0.84518292 0 0 Z " fill="#222025" transform="translate(625,255)"/>
<path d="M0 0 C0.66 0.33 1.32 0.66 2 1 C1.67 1.33 1.34 1.66 1 2 C1.66 2.66 2.32 3.32 3 4 C-1.61012242 6.95047835 -4.36529617 8.5497272 -10 8 C-7.1524798 3.94775971 -4.63339243 1.8130666 0 0 Z " fill="#1F1F22" transform="translate(674,387)"/>
<path d="M0 0 C4.24822374 0.47202486 6.19989709 2.96655518 9 6 C8.67 6.99 8.34 7.98 8 9 C4.68765616 7.83620352 2.1101781 6.88761214 0 4 C0 2.68 0 1.36 0 0 Z " fill="#131315" transform="translate(365,350)"/>
<path d="M0 0 C0.99 0.33 1.98 0.66 3 1 C3 5.29 3 9.58 3 14 C2.01 14 1.02 14 0 14 C0 9.38 0 4.76 0 0 Z " fill="#07070B" transform="translate(688,360)"/>
<path d="M0 0 C3.70787035 -0.28328381 7.30318076 -0.46346554 11 0 C13.1875 2.5 13.1875 2.5 14 5 C13.34 5 12.68 5 12 5 C11.67 5.99 11.34 6.98 11 8 C10.34 7.01 9.68 6.02 9 5 C6.43717258 4.27034634 6.43717258 4.27034634 4 4 C4.66 3.34 5.32 2.68 6 2 C3.03 1.505 3.03 1.505 0 1 C0 0.67 0 0.34 0 0 Z " fill="#1F1E22" transform="translate(556,250)"/>
<path d="M0 0 C4.875 1.75 4.875 1.75 6 4 C6.04022391 6.3329866 6.04320247 8.66706666 6 11 C5.34 11 4.68 11 4 11 C0 4.5 0 4.5 0 0 Z " fill="#141418" transform="translate(387,373)"/>
<path d="M0 0 C7.425 0.99 7.425 0.99 15 2 C15 2.33 15 2.66 15 3 C11.7 3.33 8.4 3.66 5 4 C5.33 4.66 5.66 5.32 6 6 C2.26512223 5.5020163 0.18762365 5.12508244 -3 3 C-2.01 3 -1.02 3 0 3 C0 2.01 0 1.02 0 0 Z " fill="#4E4B51" transform="translate(657,258)"/>
<path d="M0 0 C3.33523252 1.38009621 5.18607951 2.84950652 7 6 C6.67 6.99 6.34 7.98 6 9 C3.15616877 7.7251791 0.86245982 6.54862922 -1 4 C-0.6875 1.8125 -0.6875 1.8125 0 0 Z " fill="#111114" transform="translate(528,453)"/>
<path d="M0 0 C0.33 0.66 0.66 1.32 1 2 C1.66 2 2.32 2 3 2 C4.5625 4.8125 4.5625 4.8125 6 8 C5.67 8.99 5.34 9.98 5 11 C4.01 11 3.02 11 2 11 C-0.32590854 7.36576791 -0.16265833 4.22911669 0 0 Z " fill="#0E0D12" transform="translate(537,471)"/>
<path d="M0 0 C3.98175544 2.10148204 6.35039045 4.36905358 9 8 C8.67 8.66 8.34 9.32 8 10 C1.95057034 6.56653992 1.95057034 6.56653992 0 4 C0 2.68 0 1.36 0 0 Z " fill="#070709" transform="translate(396,395)"/>
<path d="M0 0 C3.2542015 2.83430453 4.5206753 4.68607774 5 9 C4.01 8.67 3.02 8.34 2 8 C1.67 8.66 1.34 9.32 1 10 C-0.32 7.36 -1.64 4.72 -3 2 C-2.01 2 -1.02 2 0 2 C0 1.34 0 0.68 0 0 Z " fill="#242428" transform="translate(385,365)"/>
<path d="M0 0 C0.33 0 0.66 0 1 0 C1 6.93 1 13.86 1 21 C-2.6812654 16.09164613 -2.38327454 14.84493669 -2 9 C-1.67 8.67 -1.34 8.34 -1 8 C-0.76924918 6.65252916 -0.58846937 5.29622435 -0.4375 3.9375 C-0.293125 2.638125 -0.14875 1.33875 0 0 Z " fill="#161017" transform="translate(516,184)"/>
<path d="M0 0 C0.66 0.33 1.32 0.66 2 1 C2.6328125 3.06640625 2.6328125 3.06640625 3.125 5.5625 C3.29257812 6.38878906 3.46015625 7.21507812 3.6328125 8.06640625 C3.75398437 8.70449219 3.87515625 9.34257812 4 10 C1.13275314 9.42655063 0.1385485 9.1385485 -2 7 C-2.125 4.375 -2.125 4.375 -2 2 C-1.34 2 -0.68 2 0 2 C0 1.34 0 0.68 0 0 Z " fill="#131218" transform="translate(548,490)"/>
<path d="M0 0 C2.75 -0.25 2.75 -0.25 6 0 C8.375 2 8.375 2 10 4 C9.67 4.33 9.34 4.66 9 5 C2.60465116 4.30232558 2.60465116 4.30232558 0 3 C0 2.01 0 1.02 0 0 Z " fill="#141418" transform="translate(414,410)"/>
<path d="M0 0 C-3.3 2.31 -6.6 4.62 -10 7 C-10.33 6.01 -10.66 5.02 -11 4 C-7.88168853 -0.67746721 -5.4104933 -1.35262332 0 0 Z " fill="#0B0A0E" transform="translate(652,413)"/>
<path d="M0 0 C6.625 -0.25 6.625 -0.25 10 2 C10 2.66 10 3.32 10 4 C7.36 4 4.72 4 2 4 C1.34 2.68 0.68 1.36 0 0 Z " fill="#17151A" transform="translate(454,389)"/>
<path d="M0 0 C0.99 0.33 1.98 0.66 3 1 C0.03 4.96 0.03 4.96 -3 9 C-3.99 7.68 -4.98 6.36 -6 5 C-1.60546875 0.99609375 -1.60546875 0.99609375 0 0 Z " fill="#0D0D10" transform="translate(666,394)"/>
<path d="M0 0 C0.99 0 1.98 0 3 0 C2.67 2.31 2.34 4.62 2 7 C0.35 7.33 -1.3 7.66 -3 8 C-3 7.01 -3 6.02 -3 5 C-2.01 4.67 -1.02 4.34 0 4 C0 2.68 0 1.36 0 0 Z " fill="#0C0A10" transform="translate(603,503)"/>
<path d="M0 0 C0.804375 0.4640625 0.804375 0.4640625 1.625 0.9375 C4.3984957 2.17827439 7.00042837 2.5909675 10 3 C10 3.33 10 3.66 10 4 C9.07767578 4.09087891 9.07767578 4.09087891 8.13671875 4.18359375 C7.32847656 4.26738281 6.52023437 4.35117187 5.6875 4.4375 C4.88699219 4.51871094 4.08648437 4.59992188 3.26171875 4.68359375 C0.83912821 4.95265693 0.83912821 4.95265693 -2 6 C-2.33 4.68 -2.66 3.36 -3 2 C-2.01 1.34 -1.02 0.68 0 0 Z " fill="#2F2F33" transform="translate(452,390)"/>
<path d="M0 0 C-0.25 3.375 -0.25 3.375 -1 7 C-2.9375 8.375 -2.9375 8.375 -5 9 C-5.99 9.495 -5.99 9.495 -7 10 C-4.27272727 0 -4.27272727 0 0 0 Z " fill="#272429" transform="translate(605,449)"/>
<path d="M0 0 C2.0078125 0.1328125 2.0078125 0.1328125 5.0078125 1.1328125 C5.0078125 1.7928125 5.0078125 2.4528125 5.0078125 3.1328125 C3.38317408 3.18676728 1.75802709 3.22558445 0.1328125 3.2578125 C-0.77210938 3.28101563 -1.67703125 3.30421875 -2.609375 3.328125 C-4.9921875 3.1328125 -4.9921875 3.1328125 -6.9921875 1.1328125 C-5.11159717 -0.74777783 -2.49328712 0.00920032 0 0 Z " fill="#020106" transform="translate(667.9921875,260.8671875)"/>
<path d="M0 0 C5.75 0.875 5.75 0.875 8 2 C8 2.99 8 3.98 8 5 C5.69 4.67 3.38 4.34 1 4 C0.67 2.68 0.34 1.36 0 0 Z " fill="#111015" transform="translate(649,256)"/>
<path d="M0 0 C2.375 0.3125 2.375 0.3125 5 1 C7 4 7 4 6.625 6.1875 C6.41875 6.785625 6.2125 7.38375 6 8 C4.99403703 7.0479279 3.99538437 6.08812654 3 5.125 C2.443125 4.59132813 1.88625 4.05765625 1.3125 3.5078125 C0 2 0 2 0 0 Z " fill="#EEEDF0" transform="translate(488,395)"/>
<path d="M0 0 C2.8992226 0.46761655 3.86675182 0.86675182 6 3 C6 3.99 6 4.98 6 6 C3.625 5.75 3.625 5.75 1 5 C-0.3125 2.9375 -0.3125 2.9375 -1 1 C-0.67 0.67 -0.34 0.34 0 0 Z " fill="#13111A" transform="translate(379,361)"/>
<path d="M0 0 C5.94 0.99 5.94 0.99 12 2 C12 2.66 12 3.32 12 4 C10.56260487 4.02712066 9.12506137 4.04645067 7.6875 4.0625 C6.48673828 4.07990234 6.48673828 4.07990234 5.26171875 4.09765625 C3 4 3 4 0 3 C0 2.01 0 1.02 0 0 Z " fill="#010004" transform="translate(572,505)"/>
<path d="M0 0 C1.2065625 0.0309375 1.2065625 0.0309375 2.4375 0.0625 C2.7675 1.7125 3.0975 3.3625 3.4375 5.0625 C4.4275 5.3925 5.4175 5.7225 6.4375 6.0625 C1.6875 5.1875 1.6875 5.1875 -0.5625 4.0625 C-0.5625 3.4025 -0.5625 2.7425 -0.5625 2.0625 C-1.5525 1.7325 -2.5425 1.4025 -3.5625 1.0625 C-2.5625 0.0625 -2.5625 0.0625 0 0 Z " fill="#18161C" transform="translate(568.5625,502.9375)"/>
<path d="M0 0 C2.31 0.66 4.62 1.32 7 2 C6.34 2.66 5.68 3.32 5 4 C5.66 4.33 6.32 4.66 7 5 C7 5.66 7 6.32 7 7 C4.69 6.34 2.38 5.68 0 5 C0.66 4.67 1.32 4.34 2 4 C2 3.34 2 2.68 2 2 C1.34 2 0.68 2 0 2 C0 1.34 0 0.68 0 0 Z " fill="#36343A" transform="translate(561,500)"/>
<path d="M0 0 C0.99 0.33 1.98 0.66 3 1 C2.625 2.9375 2.625 2.9375 2 5 C1.01 5.495 1.01 5.495 0 6 C0 5.34 0 4.68 0 4 C-1.32 4.99 -2.64 5.98 -4 7 C-4.66 6.67 -5.32 6.34 -6 6 C-4.02 4.02 -2.04 2.04 0 0 Z " fill="#1F1E25" transform="translate(659,400)"/>
<path d="M0 0 C0.33 0.99 0.66 1.98 1 3 C-3.455 3.495 -3.455 3.495 -8 4 C-8 3.01 -8 2.02 -8 1 C-5.07175348 0.02391783 -3.04386724 -0.08226668 0 0 Z " fill="#020107" transform="translate(531,242)"/>
<path d="M0 0 C1.5625 1.1875 1.5625 1.1875 3 3 C2.6875 5.6875 2.6875 5.6875 2 8 C1.01 7.67 0.02 7.34 -1 7 C-1.04254356 5.00045254 -1.04080783 2.99958364 -1 1 C-0.67 0.67 -0.34 0.34 0 0 Z " fill="#111016" transform="translate(600,489)"/>
<path d="M0 0 C2.88575819 0.39803561 3.82189513 0.79009069 5.75 3.0625 C6.1625 3.701875 6.575 4.34125 7 5 C5.35 5.33 3.7 5.66 2 6 C1.01 4.68 0.02 3.36 -1 2 C-0.67 1.34 -0.34 0.68 0 0 Z " fill="#1D1D21" transform="translate(487,398)"/>
<path d="M0 0 C1.32 0 2.64 0 4 0 C3.67 1.32 3.34 2.64 3 4 C-0.3 4 -3.6 4 -7 4 C-7 3.67 -7 3.34 -7 3 C-5.5459375 2.5359375 -5.5459375 2.5359375 -4.0625 2.0625 C-1.15934208 1.30476658 -1.15934208 1.30476658 0 0 Z " fill="#2F2F32" transform="translate(545,249)"/>
<path d="M0 0 C-0.99 1.485 -0.99 1.485 -2 3 C-5.625 3.1875 -5.625 3.1875 -9 3 C-7 0 -7 0 -5.0625 -0.75 C-3 -1 -3 -1 0 0 Z " fill="#0A0A0D" transform="translate(683,387)"/>
<path d="M0 0 C1.98 0.66 3.96 1.32 6 2 C5.34 3.32 4.68 4.64 4 6 C1.69 5.34 -0.62 4.68 -3 4 C-2.505 3.525625 -2.01 3.05125 -1.5 2.5625 C0.11542197 1.24076302 0.11542197 1.24076302 0 0 Z " fill="#302E38" transform="translate(423,412)"/>
<path d="M0 0 C0.33 0 0.66 0 1 0 C1 4.62 1 9.24 1 14 C1.66 14 2.32 14 3 14 C2.67 14.66 2.34 15.32 2 16 C0.68 16 -0.64 16 -2 16 C-1.67 15.01 -1.34 14.02 -1 13 C-0.77548542 10.77425665 -0.59217122 8.54418481 -0.4375 6.3125 C-0.35371094 5.13300781 -0.26992188 3.95351563 -0.18359375 2.73828125 C-0.12300781 1.83464844 -0.06242188 0.93101562 0 0 Z " fill="#53515A" transform="translate(687,360)"/>
<path d="M0 0 C2 2 2 2 2.125 4.625 C2.08375 5.40875 2.0425 6.1925 2 7 C1.01 7.495 1.01 7.495 0 8 C-0.99 6.02 -1.98 4.04 -3 2 C-2.01 1.34 -1.02 0.68 0 0 Z " fill="#181721" transform="translate(543,480)"/>
<path d="M0 0 C6.52307692 -0.36923077 6.52307692 -0.36923077 8.9375 1.5 C9.288125 1.995 9.63875 2.49 10 3 C9.01 3 8.02 3 7 3 C7 3.66 7 4.32 7 5 C5.02 5 3.04 5 1 5 C1 4.67 1 4.34 1 4 C2.65 4 4.3 4 6 4 C5.67 3.34 5.34 2.68 5 2 C2.47266765 1.34444881 2.47266765 1.34444881 0 1 C0 0.67 0 0.34 0 0 Z " fill="#4D4C55" transform="translate(526,241)"/>
<path d="M0 0 C2.64 0 5.28 0 8 0 C6.35 1.65 4.7 3.3 3 5 C2.01 3.35 1.02 1.7 0 0 Z " fill="#E6E4E9" transform="translate(342,323)"/>
<path d="M0 0 C2.97 0.495 2.97 0.495 6 1 C6 1.99 6 2.98 6 4 C3.36 3.67 0.72 3.34 -2 3 C-1.34 2.67 -0.68 2.34 0 2 C0 1.34 0 0.68 0 0 Z " fill="#07040A" transform="translate(608,258)"/>
<path d="M0 0 C1.32 0 2.64 0 4 0 C4.66 1.32 5.32 2.64 6 4 C5.01 4 4.02 4 3 4 C2.67 4.66 2.34 5.32 2 6 C0 3 0 3 0 0 Z " fill="#1B1A20" transform="translate(533,244)"/>
<path d="M0 0 C1 2 1 2 0.75 4.0625 C0.5025 4.701875 0.255 5.34125 0 6 C-0.99 6.33 -1.98 6.66 -3 7 C-3 6.34 -3 5.68 -3 5 C-3.99 4.67 -4.98 4.34 -6 4 C-4.02 2.68 -2.04 1.36 0 0 Z " fill="#1B1A1F" transform="translate(641,415)"/>
<path d="M0 0 C-0.3125 1.875 -0.3125 1.875 -1 4 C-1.99 4.66 -2.98 5.32 -4 6 C-4.66 5.67 -5.32 5.34 -6 5 C-6 4.34 -6 3.68 -6 3 C-2.53846154 0 -2.53846154 0 0 0 Z " fill="#0F0E13" transform="translate(659,404)"/>
<path d="M0 0 C0.99 0.33 1.98 0.66 3 1 C3 3.64 3 6.28 3 9 C2.67 8.01 2.34 7.02 2 6 C1.34 6 0.68 6 0 6 C0 4.02 0 2.04 0 0 Z " fill="#010106" transform="translate(688,360)"/>
<path d="M0 0 C0.99 0 1.98 0 3 0 C3 1.32 3 2.64 3 4 C2.01 4 1.02 4 0 4 C0 5.65 0 7.3 0 9 C-0.33 9 -0.66 9 -1 9 C-1.09765625 2.84765625 -1.09765625 2.84765625 -1 1 C-0.67 0.67 -0.34 0.34 0 0 Z " fill="#2C2B33" transform="translate(682,320)"/>
<path d="M0 0 C4.455 0.99 4.455 0.99 9 2 C8.34 3.32 7.68 4.64 7 6 C5.83054208 5.19152271 4.66449539 4.37810888 3.5 3.5625 C2.8503125 3.11003906 2.200625 2.65757812 1.53125 2.19140625 C1.0259375 1.79824219 0.520625 1.40507812 0 1 C0 0.67 0 0.34 0 0 Z " fill="#E0E0E4" transform="translate(352,337)"/>
<path d="M0 0 C0.66 0.33 1.32 0.66 2 1 C1.67 1.33 1.34 1.66 1 2 C1.66 2.66 2.32 3.32 3 4 C1.35 4.66 -0.3 5.32 -2 6 C-2 5.01 -2 4.02 -2 3 C-2.66 2.67 -3.32 2.34 -4 2 C-2.125 0.9375 -2.125 0.9375 0 0 Z " fill="#26262A" transform="translate(674,387)"/>
<path d="M0 0 C1.65 0.33 3.3 0.66 5 1 C4.01 1.495 4.01 1.495 3 2 C2.67 2.99 2.34 3.98 2 5 C0.35 4.67 -1.3 4.34 -3 4 C-2.01 3.67 -1.02 3.34 0 3 C0 2.01 0 1.02 0 0 Z " fill="#363338" transform="translate(657,258)"/>
<path d="M0 0 C0.99 0.33 1.98 0.66 3 1 C3.33 1.99 3.66 2.98 4 4 C3.67 4.66 3.34 5.32 3 6 C2.01 5.67 1.02 5.34 0 5 C0 3.35 0 1.7 0 0 Z " fill="#EEEDF1" transform="translate(498,415)"/>
<path d="M0 0 C0.66 0.99 1.32 1.98 2 3 C0.35 4.32 -1.3 5.64 -3 7 C-3 3.48283697 -2.17554415 2.62878252 0 0 Z " fill="#E5E5E6" transform="translate(660,395)"/>
</svg>
